<mxfile host="app.diagrams.net" modified="2022-05-05T17:39:55.196Z" agent="5.0 (Windows NT 10.0; Win64; x64) AppleWebKit/537.36 (KHTML, like Gecko) Chrome/100.0.4896.127 Safari/537.36" etag="gNU4EG017o78Oy1ne1Hd" version="17.5.0" type="github" pages="2">
  <diagram name="Page-1" id="5f0bae14-7c28-e335-631c-24af17079c00">
    <mxGraphModel dx="1422" dy="762" grid="1" gridSize="10" guides="1" tooltips="1" connect="1" arrows="1" fold="1" page="1" pageScale="1" pageWidth="1100" pageHeight="850" background="none" math="0" shadow="0">
      <root>
        <mxCell id="0" />
        <mxCell id="1" parent="0" />
        <mxCell id="bSNEIYtxt9SxKsdX6t17-1" value="&lt;p style=&quot;margin: 0px ; margin-top: 4px ; text-align: center&quot;&gt;&lt;b&gt;&lt;font style=&quot;font-size: 18px&quot;&gt;Cantinero1&lt;/font&gt;&lt;/b&gt;&lt;/p&gt;&lt;hr size=&quot;1&quot;&gt;&lt;p style=&quot;margin: 0px ; margin-left: 4px&quot;&gt;&lt;font style=&quot;font-size: 14px&quot;&gt;+ bebida1: Mojito&lt;/font&gt;&lt;/p&gt;&lt;p style=&quot;margin: 0px ; margin-left: 4px&quot;&gt;&lt;br&gt;&lt;/p&gt;&lt;hr size=&quot;1&quot;&gt;&lt;p style=&quot;margin: 0px ; margin-left: 4px&quot;&gt;+ Preparar(): void&lt;/p&gt;" style="verticalAlign=top;align=left;overflow=fill;fontSize=12;fontFamily=Helvetica;html=1;" parent="1" vertex="1">
          <mxGeometry x="120" y="360" width="260" height="130" as="geometry" />
        </mxCell>
        <mxCell id="bSNEIYtxt9SxKsdX6t17-2" value="&lt;p style=&quot;margin: 0px ; margin-top: 4px ; text-align: center&quot;&gt;&lt;b&gt;&lt;font style=&quot;font-size: 18px&quot;&gt;Mojito&lt;/font&gt;&lt;/b&gt;&lt;/p&gt;&lt;hr size=&quot;1&quot;&gt;&lt;p style=&quot;margin: 0px ; margin-left: 4px&quot;&gt;+ field: Type&lt;/p&gt;&lt;hr size=&quot;1&quot;&gt;&lt;p style=&quot;margin: 0px ; margin-left: 4px&quot;&gt;+ Preparar(): void&lt;/p&gt;" style="verticalAlign=top;align=left;overflow=fill;fontSize=12;fontFamily=Helvetica;html=1;" parent="1" vertex="1">
          <mxGeometry x="120" y="40" width="260" height="120" as="geometry" />
        </mxCell>
        <mxCell id="bSNEIYtxt9SxKsdX6t17-3" value="&lt;p style=&quot;margin: 0px ; margin-top: 4px ; text-align: center&quot;&gt;&lt;i&gt;&amp;lt;&amp;lt;Interface&amp;gt;&amp;gt;&lt;/i&gt;&lt;br&gt;&lt;b&gt;&lt;font style=&quot;font-size: 18px&quot;&gt;IBebida&lt;/font&gt;&lt;/b&gt;&lt;/p&gt;&lt;hr size=&quot;1&quot;&gt;&lt;p style=&quot;margin: 0px ; margin-left: 4px&quot;&gt;+ field1: Type&lt;br&gt;+ field2: Type&lt;/p&gt;&lt;hr size=&quot;1&quot;&gt;&lt;p style=&quot;margin: 0px ; margin-left: 4px&quot;&gt;+ Preparar(): void&lt;br&gt;&lt;/p&gt;" style="verticalAlign=top;align=left;overflow=fill;fontSize=12;fontFamily=Helvetica;html=1;" parent="1" vertex="1">
          <mxGeometry x="415" y="260" width="310" height="140" as="geometry" />
        </mxCell>
        <mxCell id="bSNEIYtxt9SxKsdX6t17-4" value="&lt;p style=&quot;margin: 0px ; margin-top: 4px ; text-align: center&quot;&gt;&lt;b&gt;&lt;font style=&quot;font-size: 18px&quot;&gt;PiñaColada&lt;/font&gt;&lt;/b&gt;&lt;/p&gt;&lt;hr size=&quot;1&quot;&gt;&lt;p style=&quot;margin: 0px ; margin-left: 4px&quot;&gt;+ field: Type&lt;/p&gt;&lt;hr size=&quot;1&quot;&gt;&lt;p style=&quot;margin: 0px ; margin-left: 4px&quot;&gt;+ Preparar(): void&lt;/p&gt;" style="verticalAlign=top;align=left;overflow=fill;fontSize=12;fontFamily=Helvetica;html=1;" parent="1" vertex="1">
          <mxGeometry x="440" y="40" width="260" height="120" as="geometry" />
        </mxCell>
        <mxCell id="bSNEIYtxt9SxKsdX6t17-5" value="&lt;p style=&quot;margin: 0px ; margin-top: 4px ; text-align: center&quot;&gt;&lt;b&gt;&lt;font style=&quot;font-size: 18px&quot;&gt;Michelada&lt;/font&gt;&lt;/b&gt;&lt;/p&gt;&lt;hr size=&quot;1&quot;&gt;&lt;p style=&quot;margin: 0px ; margin-left: 4px&quot;&gt;+ tipo: string&lt;/p&gt;&lt;hr size=&quot;1&quot;&gt;&lt;p style=&quot;margin: 0px ; margin-left: 4px&quot;&gt;+ Preparar(): void&lt;/p&gt;" style="verticalAlign=top;align=left;overflow=fill;fontSize=12;fontFamily=Helvetica;html=1;" parent="1" vertex="1">
          <mxGeometry x="760" y="40" width="260" height="120" as="geometry" />
        </mxCell>
        <mxCell id="bSNEIYtxt9SxKsdX6t17-8" value="+ bebida2: Michelada" style="text;strokeColor=none;fillColor=none;align=left;verticalAlign=top;spacingLeft=4;spacingRight=4;overflow=hidden;rotatable=0;points=[[0,0.5],[1,0.5]];portConstraint=eastwest;fontSize=14;" parent="1" vertex="1">
          <mxGeometry x="120" y="412" width="260" height="26" as="geometry" />
        </mxCell>
        <mxCell id="bSNEIYtxt9SxKsdX6t17-9" value="&lt;p style=&quot;margin: 0px ; margin-top: 4px ; text-align: center&quot;&gt;&lt;b&gt;&lt;font style=&quot;font-size: 18px&quot;&gt;Cantinero2&lt;/font&gt;&lt;/b&gt;&lt;/p&gt;&lt;hr size=&quot;1&quot;&gt;&lt;p style=&quot;margin: 0px ; margin-left: 4px&quot;&gt;&lt;font style=&quot;font-size: 14px&quot;&gt;+ bebida: IBebida&lt;/font&gt;&lt;/p&gt;&lt;p style=&quot;margin: 0px ; margin-left: 4px&quot;&gt;&lt;br&gt;&lt;/p&gt;&lt;hr size=&quot;1&quot;&gt;&lt;p style=&quot;margin: 0px ; margin-left: 4px&quot;&gt;+ Preparar(): void&lt;/p&gt;" style="verticalAlign=top;align=left;overflow=fill;fontSize=12;fontFamily=Helvetica;html=1;" parent="1" vertex="1">
          <mxGeometry x="440" y="480" width="260" height="130" as="geometry" />
        </mxCell>
        <mxCell id="bSNEIYtxt9SxKsdX6t17-11" style="edgeStyle=orthogonalEdgeStyle;rounded=0;orthogonalLoop=1;jettySize=auto;html=1;fontSize=18;" parent="1" source="bSNEIYtxt9SxKsdX6t17-10" target="bSNEIYtxt9SxKsdX6t17-3" edge="1">
          <mxGeometry relative="1" as="geometry">
            <Array as="points">
              <mxPoint x="250" y="220" />
              <mxPoint x="570" y="220" />
            </Array>
          </mxGeometry>
        </mxCell>
        <mxCell id="bSNEIYtxt9SxKsdX6t17-10" value="" style="shape=requiredInterface;html=1;verticalLabelPosition=bottom;sketch=0;fontSize=18;" parent="1" vertex="1">
          <mxGeometry x="245" y="160" width="10" height="30" as="geometry" />
        </mxCell>
        <mxCell id="bSNEIYtxt9SxKsdX6t17-16" style="edgeStyle=orthogonalEdgeStyle;rounded=0;orthogonalLoop=1;jettySize=auto;html=1;entryX=0.5;entryY=0;entryDx=0;entryDy=0;fontSize=18;" parent="1" source="bSNEIYtxt9SxKsdX6t17-15" target="bSNEIYtxt9SxKsdX6t17-3" edge="1">
          <mxGeometry relative="1" as="geometry" />
        </mxCell>
        <mxCell id="bSNEIYtxt9SxKsdX6t17-15" value="" style="shape=requiredInterface;html=1;verticalLabelPosition=bottom;sketch=0;fontSize=18;" parent="1" vertex="1">
          <mxGeometry x="565" y="160" width="10" height="30" as="geometry" />
        </mxCell>
        <mxCell id="bSNEIYtxt9SxKsdX6t17-20" style="edgeStyle=orthogonalEdgeStyle;rounded=0;orthogonalLoop=1;jettySize=auto;html=1;entryX=0.442;entryY=0.013;entryDx=0;entryDy=0;entryPerimeter=0;fontSize=18;" parent="1" source="bSNEIYtxt9SxKsdX6t17-18" target="bSNEIYtxt9SxKsdX6t17-9" edge="1">
          <mxGeometry relative="1" as="geometry" />
        </mxCell>
        <mxCell id="bSNEIYtxt9SxKsdX6t17-18" value="" style="shape=providedRequiredInterface;html=1;verticalLabelPosition=bottom;sketch=0;fontSize=18;" parent="1" vertex="1">
          <mxGeometry x="565" y="400" width="20" height="20" as="geometry" />
        </mxCell>
        <mxCell id="bSNEIYtxt9SxKsdX6t17-22" style="edgeStyle=orthogonalEdgeStyle;rounded=0;orthogonalLoop=1;jettySize=auto;html=1;entryX=0.5;entryY=0;entryDx=0;entryDy=0;fontSize=18;" parent="1" source="bSNEIYtxt9SxKsdX6t17-21" target="bSNEIYtxt9SxKsdX6t17-3" edge="1">
          <mxGeometry relative="1" as="geometry">
            <Array as="points">
              <mxPoint x="890" y="220" />
              <mxPoint x="570" y="220" />
            </Array>
          </mxGeometry>
        </mxCell>
        <mxCell id="bSNEIYtxt9SxKsdX6t17-21" value="" style="shape=requiredInterface;html=1;verticalLabelPosition=bottom;sketch=0;fontSize=18;" parent="1" vertex="1">
          <mxGeometry x="885" y="160" width="10" height="30" as="geometry" />
        </mxCell>
      </root>
    </mxGraphModel>
  </diagram>
  <diagram id="JJIax5gJGrwvQOZ01DqU" name="Page-2">
    <mxGraphModel dx="1422" dy="762" grid="1" gridSize="10" guides="1" tooltips="1" connect="1" arrows="1" fold="1" page="1" pageScale="1" pageWidth="1169" pageHeight="827" math="0" shadow="0">
      <root>
        <mxCell id="0" />
        <mxCell id="1" parent="0" />
        <mxCell id="n1H6Ov5bS7Uj4cQo7R5i-2" value="" style="strokeWidth=1;shadow=0;dashed=0;align=center;html=1;shape=mxgraph.mockup.containers.browserWindow;rSize=0;strokeColor=#666666;strokeColor2=#008cff;strokeColor3=#c4c4c4;mainText=,;recursiveResize=0;" vertex="1" parent="1">
          <mxGeometry x="4" y="5" width="1154" height="820" as="geometry" />
        </mxCell>
        <mxCell id="n1H6Ov5bS7Uj4cQo7R5i-3" value="Page 1" style="strokeWidth=1;shadow=0;dashed=0;align=center;html=1;shape=mxgraph.mockup.containers.anchor;fontSize=17;fontColor=#666666;align=left;" vertex="1" parent="n1H6Ov5bS7Uj4cQo7R5i-2">
          <mxGeometry x="60" y="12" width="110" height="26" as="geometry" />
        </mxCell>
        <mxCell id="n1H6Ov5bS7Uj4cQo7R5i-4" value="https://www.draw.io" style="strokeWidth=1;shadow=0;dashed=0;align=center;html=1;shape=mxgraph.mockup.containers.anchor;rSize=0;fontSize=17;fontColor=#666666;align=left;" vertex="1" parent="n1H6Ov5bS7Uj4cQo7R5i-2">
          <mxGeometry x="130" y="60" width="250" height="26" as="geometry" />
        </mxCell>
        <mxCell id="n1H6Ov5bS7Uj4cQo7R5i-5" value="" style="strokeWidth=1;shadow=0;dashed=0;align=center;html=1;shape=mxgraph.mockup.forms.rrect;rSize=0;strokeColor=#999999;fillColor=#ffffff;" vertex="1" parent="n1H6Ov5bS7Uj4cQo7R5i-2">
          <mxGeometry x="50" y="110" width="70" height="710" as="geometry" />
        </mxCell>
        <mxCell id="n1H6Ov5bS7Uj4cQo7R5i-6" value="Menú" style="strokeWidth=1;shadow=0;dashed=0;align=center;html=1;shape=mxgraph.mockup.forms.rrect;rSize=0;strokeColor=#999999;fontColor=#008cff;fontSize=17;fillColor=#ffffff;resizeWidth=1;" vertex="1" parent="n1H6Ov5bS7Uj4cQo7R5i-5">
          <mxGeometry width="70" height="30" relative="1" as="geometry" />
        </mxCell>
        <mxCell id="n1H6Ov5bS7Uj4cQo7R5i-7" value="Item 1" style="strokeWidth=1;shadow=0;dashed=0;align=center;html=1;shape=mxgraph.mockup.forms.anchor;fontSize=17;fontColor=#666666;align=left;spacingLeft=5;resizeWidth=1;" vertex="1" parent="n1H6Ov5bS7Uj4cQo7R5i-5">
          <mxGeometry width="26.168224299065418" height="20" relative="1" as="geometry">
            <mxPoint y="30" as="offset" />
          </mxGeometry>
        </mxCell>
        <mxCell id="n1H6Ov5bS7Uj4cQo7R5i-8" value="Item 2" style="strokeWidth=1;shadow=0;dashed=0;align=center;html=1;shape=mxgraph.mockup.forms.anchor;fontSize=17;fontColor=#666666;align=left;spacingLeft=5;resizeWidth=1;" vertex="1" parent="n1H6Ov5bS7Uj4cQo7R5i-5">
          <mxGeometry width="26.168224299065418" height="20" relative="1" as="geometry">
            <mxPoint y="50" as="offset" />
          </mxGeometry>
        </mxCell>
        <mxCell id="n1H6Ov5bS7Uj4cQo7R5i-9" value="Item 3" style="strokeWidth=1;shadow=0;dashed=0;align=center;html=1;shape=mxgraph.mockup.forms.rrect;rSize=0;fontSize=17;fontColor=#666666;align=left;spacingLeft=5;fillColor=#ddeeff;strokeColor=none;resizeWidth=1;" vertex="1" parent="n1H6Ov5bS7Uj4cQo7R5i-5">
          <mxGeometry width="26.168224299065418" height="20" relative="1" as="geometry">
            <mxPoint y="70" as="offset" />
          </mxGeometry>
        </mxCell>
        <mxCell id="n1H6Ov5bS7Uj4cQo7R5i-10" value="Item 4" style="strokeWidth=1;shadow=0;dashed=0;align=center;html=1;shape=mxgraph.mockup.forms.anchor;fontSize=17;fontColor=#666666;align=left;spacingLeft=5;resizeWidth=1;" vertex="1" parent="n1H6Ov5bS7Uj4cQo7R5i-5">
          <mxGeometry width="26.168224299065418" height="20" relative="1" as="geometry">
            <mxPoint y="90" as="offset" />
          </mxGeometry>
        </mxCell>
        <mxCell id="n1H6Ov5bS7Uj4cQo7R5i-12" value="" style="strokeWidth=1;shadow=0;dashed=0;align=left;html=1;shape=mxgraph.mockup.containers.rrect;rSize=0;strokeColor=#666666;" vertex="1" parent="n1H6Ov5bS7Uj4cQo7R5i-2">
          <mxGeometry x="160" y="166" width="620" height="434" as="geometry" />
        </mxCell>
        <mxCell id="n1H6Ov5bS7Uj4cQo7R5i-13" value="Bloque ejemplo 1" style="strokeColor=inherit;fillColor=inherit;gradientColor=inherit;strokeWidth=1;shadow=0;dashed=0;align=left;html=1;shape=mxgraph.mockup.containers.rrect;rSize=0;fontSize=17;fontColor=#666666;fontStyle=1;resizeWidth=1;" vertex="1" parent="n1H6Ov5bS7Uj4cQo7R5i-12">
          <mxGeometry width="620" height="26" relative="1" as="geometry" />
        </mxCell>
        <mxCell id="n1H6Ov5bS7Uj4cQo7R5i-14" value="Bloque ejemplo 2" style="strokeColor=inherit;fillColor=inherit;gradientColor=inherit;strokeWidth=1;shadow=0;dashed=0;align=left;html=1;shape=mxgraph.mockup.containers.rrect;rSize=0;fontSize=17;fontColor=#666666;fontStyle=1;resizeWidth=1;" vertex="1" parent="n1H6Ov5bS7Uj4cQo7R5i-12">
          <mxGeometry width="620" height="26" relative="1" as="geometry">
            <mxPoint y="26" as="offset" />
          </mxGeometry>
        </mxCell>
        <mxCell id="n1H6Ov5bS7Uj4cQo7R5i-15" value="Bloque ejemplo 3" style="strokeWidth=1;shadow=0;dashed=0;align=left;html=1;shape=mxgraph.mockup.containers.rrect;rSize=0;fontSize=17;fontColor=#ffffff;fontStyle=1;fillColor=#008cff;strokeColor=#008cff;resizeWidth=1;" vertex="1" parent="n1H6Ov5bS7Uj4cQo7R5i-12">
          <mxGeometry width="620" height="26" relative="1" as="geometry">
            <mxPoint y="52" as="offset" />
          </mxGeometry>
        </mxCell>
        <mxCell id="n1H6Ov5bS7Uj4cQo7R5i-16" value="Bloque ejemplo 4" style="strokeColor=inherit;fillColor=inherit;gradientColor=inherit;strokeWidth=1;shadow=0;dashed=0;align=left;html=1;shape=mxgraph.mockup.containers.rrect;rSize=0;fontSize=17;fontColor=#666666;fontStyle=1;resizeWidth=1;" vertex="1" parent="n1H6Ov5bS7Uj4cQo7R5i-12">
          <mxGeometry y="1" width="620" height="26" relative="1" as="geometry">
            <mxPoint y="-26" as="offset" />
          </mxGeometry>
        </mxCell>
        <mxCell id="n1H6Ov5bS7Uj4cQo7R5i-101" value="" style="strokeWidth=1;shadow=0;dashed=0;align=center;html=1;shape=mxgraph.mockup.forms.rrect;rSize=0;strokeColor=#999999;fillColor=#ffffff;fontSize=18;" vertex="1" parent="n1H6Ov5bS7Uj4cQo7R5i-12">
          <mxGeometry x="12.225352112676056" y="100" width="590.3098591549297" height="110" as="geometry" />
        </mxCell>
        <mxCell id="n1H6Ov5bS7Uj4cQo7R5i-102" value="&lt;b&gt;&lt;font color=&quot;#000000&quot;&gt;Clientes&lt;/font&gt;&lt;/b&gt;" style="strokeWidth=1;shadow=0;dashed=0;align=left;html=1;shape=mxgraph.mockup.forms.rrect;rSize=0;strokeColor=#999999;fontColor=#008cff;fontSize=17;fillColor=#ffffff;resizeWidth=1;" vertex="1" parent="n1H6Ov5bS7Uj4cQo7R5i-101">
          <mxGeometry width="590.3098591549297" height="30" relative="1" as="geometry" />
        </mxCell>
        <mxCell id="n1H6Ov5bS7Uj4cQo7R5i-103" value="Cliente 1 - CeCo: 534534" style="strokeWidth=1;shadow=0;dashed=0;align=center;html=1;shape=mxgraph.mockup.forms.anchor;fontSize=17;fontColor=#666666;align=left;spacingLeft=5;resizeWidth=1;" vertex="1" parent="n1H6Ov5bS7Uj4cQo7R5i-101">
          <mxGeometry width="590.3098591549297" height="20" relative="1" as="geometry">
            <mxPoint y="30" as="offset" />
          </mxGeometry>
        </mxCell>
        <mxCell id="n1H6Ov5bS7Uj4cQo7R5i-104" value="Item 2" style="strokeWidth=1;shadow=0;dashed=0;align=center;html=1;shape=mxgraph.mockup.forms.anchor;fontSize=17;fontColor=#666666;align=left;spacingLeft=5;resizeWidth=1;" vertex="1" parent="n1H6Ov5bS7Uj4cQo7R5i-101">
          <mxGeometry width="590.3098591549297" height="20" relative="1" as="geometry">
            <mxPoint y="50" as="offset" />
          </mxGeometry>
        </mxCell>
        <mxCell id="n1H6Ov5bS7Uj4cQo7R5i-105" value="Item 3" style="strokeWidth=1;shadow=0;dashed=0;align=center;html=1;shape=mxgraph.mockup.forms.rrect;rSize=0;fontSize=17;fontColor=#666666;align=left;spacingLeft=5;fillColor=#ddeeff;strokeColor=none;resizeWidth=1;" vertex="1" parent="n1H6Ov5bS7Uj4cQo7R5i-101">
          <mxGeometry width="590.3098591549297" height="20" relative="1" as="geometry">
            <mxPoint y="70" as="offset" />
          </mxGeometry>
        </mxCell>
        <mxCell id="n1H6Ov5bS7Uj4cQo7R5i-106" value="Item 4" style="strokeWidth=1;shadow=0;dashed=0;align=center;html=1;shape=mxgraph.mockup.forms.anchor;fontSize=17;fontColor=#666666;align=left;spacingLeft=5;resizeWidth=1;" vertex="1" parent="n1H6Ov5bS7Uj4cQo7R5i-101">
          <mxGeometry width="590.3098591549297" height="20" relative="1" as="geometry">
            <mxPoint y="90" as="offset" />
          </mxGeometry>
        </mxCell>
        <mxCell id="n1H6Ov5bS7Uj4cQo7R5i-114" value="Editar" style="html=1;shadow=0;dashed=0;shape=mxgraph.bootstrap.rrect;rSize=5;strokeColor=none;strokeWidth=1;fillColor=#343A40;fontColor=#FFFFFF;whiteSpace=wrap;align=left;verticalAlign=middle;spacingLeft=0;fontStyle=1;fontSize=14;spacing=5;" vertex="1" parent="n1H6Ov5bS7Uj4cQo7R5i-101">
          <mxGeometry x="471.549295774648" y="34" width="47.1549295774648" height="20" as="geometry" />
        </mxCell>
        <mxCell id="n1H6Ov5bS7Uj4cQo7R5i-115" value="Borrar" style="html=1;shadow=0;dashed=0;shape=mxgraph.bootstrap.rrect;rSize=5;strokeColor=none;strokeWidth=1;fillColor=#DB2843;fontColor=#FFFFFF;whiteSpace=wrap;align=left;verticalAlign=middle;spacingLeft=0;fontStyle=1;fontSize=14;spacing=5;" vertex="1" parent="n1H6Ov5bS7Uj4cQo7R5i-101">
          <mxGeometry x="527.43661971831" y="34" width="48.90140845070423" height="20" as="geometry" />
        </mxCell>
        <mxCell id="n1H6Ov5bS7Uj4cQo7R5i-116" value="+ Agregar" style="html=1;shadow=0;dashed=0;shape=mxgraph.bootstrap.rrect;rSize=5;strokeColor=none;strokeWidth=1;fillColor=#0085FC;fontColor=#FFFFFF;whiteSpace=wrap;align=center;verticalAlign=middle;spacingLeft=0;fontStyle=1;fontSize=14;spacing=5;" vertex="1" parent="n1H6Ov5bS7Uj4cQo7R5i-101">
          <mxGeometry x="471.549295774648" y="5" width="104.7887323943662" height="20" as="geometry" />
        </mxCell>
        <mxCell id="n1H6Ov5bS7Uj4cQo7R5i-223" value="Editar" style="html=1;shadow=0;dashed=0;shape=mxgraph.bootstrap.rrect;rSize=5;strokeColor=none;strokeWidth=1;fillColor=#343A40;fontColor=#FFFFFF;whiteSpace=wrap;align=left;verticalAlign=middle;spacingLeft=0;fontStyle=1;fontSize=14;spacing=5;" vertex="1" parent="n1H6Ov5bS7Uj4cQo7R5i-101">
          <mxGeometry x="471.549295774648" y="54" width="47.1549295774648" height="20" as="geometry" />
        </mxCell>
        <mxCell id="n1H6Ov5bS7Uj4cQo7R5i-224" value="Borrar" style="html=1;shadow=0;dashed=0;shape=mxgraph.bootstrap.rrect;rSize=5;strokeColor=none;strokeWidth=1;fillColor=#DB2843;fontColor=#FFFFFF;whiteSpace=wrap;align=left;verticalAlign=middle;spacingLeft=0;fontStyle=1;fontSize=14;spacing=5;" vertex="1" parent="n1H6Ov5bS7Uj4cQo7R5i-101">
          <mxGeometry x="527.43661971831" y="54" width="48.90140845070423" height="20" as="geometry" />
        </mxCell>
        <mxCell id="n1H6Ov5bS7Uj4cQo7R5i-206" value="" style="strokeWidth=1;shadow=0;dashed=0;align=center;html=1;shape=mxgraph.mockup.forms.rrect;rSize=0;strokeColor=#999999;fillColor=#ffffff;fontSize=18;" vertex="1" parent="n1H6Ov5bS7Uj4cQo7R5i-12">
          <mxGeometry x="12.225352112676056" y="223" width="590.3098591549297" height="110" as="geometry" />
        </mxCell>
        <mxCell id="n1H6Ov5bS7Uj4cQo7R5i-207" value="&lt;b&gt;&lt;font color=&quot;#000000&quot;&gt;Usuarios de carga&lt;/font&gt;&lt;/b&gt;" style="strokeWidth=1;shadow=0;dashed=0;align=left;html=1;shape=mxgraph.mockup.forms.rrect;rSize=0;strokeColor=#999999;fontColor=#008cff;fontSize=17;fillColor=#ffffff;resizeWidth=1;" vertex="1" parent="n1H6Ov5bS7Uj4cQo7R5i-206">
          <mxGeometry width="590.3098591549297" height="30" relative="1" as="geometry" />
        </mxCell>
        <mxCell id="n1H6Ov5bS7Uj4cQo7R5i-208" value="Pánfilo godinez Meza" style="strokeWidth=1;shadow=0;dashed=0;align=center;html=1;shape=mxgraph.mockup.forms.anchor;fontSize=17;fontColor=#666666;align=left;spacingLeft=5;resizeWidth=1;" vertex="1" parent="n1H6Ov5bS7Uj4cQo7R5i-206">
          <mxGeometry width="590.3098591549297" height="20" relative="1" as="geometry">
            <mxPoint y="30" as="offset" />
          </mxGeometry>
        </mxCell>
        <mxCell id="n1H6Ov5bS7Uj4cQo7R5i-209" value="Petronila Fernández Guevara" style="strokeWidth=1;shadow=0;dashed=0;align=center;html=1;shape=mxgraph.mockup.forms.anchor;fontSize=17;fontColor=#666666;align=left;spacingLeft=5;resizeWidth=1;" vertex="1" parent="n1H6Ov5bS7Uj4cQo7R5i-206">
          <mxGeometry width="590.3098591549297" height="20" relative="1" as="geometry">
            <mxPoint y="50" as="offset" />
          </mxGeometry>
        </mxCell>
        <mxCell id="n1H6Ov5bS7Uj4cQo7R5i-210" value="Pancho cachondo" style="strokeWidth=1;shadow=0;dashed=0;align=center;html=1;shape=mxgraph.mockup.forms.rrect;rSize=0;fontSize=17;fontColor=#666666;align=left;spacingLeft=5;fillColor=#ddeeff;strokeColor=none;resizeWidth=1;" vertex="1" parent="n1H6Ov5bS7Uj4cQo7R5i-206">
          <mxGeometry width="590.3098591549297" height="20" relative="1" as="geometry">
            <mxPoint y="70" as="offset" />
          </mxGeometry>
        </mxCell>
        <mxCell id="n1H6Ov5bS7Uj4cQo7R5i-211" value="Ana Guevara" style="strokeWidth=1;shadow=0;dashed=0;align=center;html=1;shape=mxgraph.mockup.forms.anchor;fontSize=17;fontColor=#666666;align=left;spacingLeft=5;resizeWidth=1;" vertex="1" parent="n1H6Ov5bS7Uj4cQo7R5i-206">
          <mxGeometry width="590.3098591549297" height="20" relative="1" as="geometry">
            <mxPoint y="90" as="offset" />
          </mxGeometry>
        </mxCell>
        <mxCell id="n1H6Ov5bS7Uj4cQo7R5i-212" value="Editar" style="html=1;shadow=0;dashed=0;shape=mxgraph.bootstrap.rrect;rSize=5;strokeColor=none;strokeWidth=1;fillColor=#343A40;fontColor=#FFFFFF;whiteSpace=wrap;align=left;verticalAlign=middle;spacingLeft=0;fontStyle=1;fontSize=14;spacing=5;" vertex="1" parent="n1H6Ov5bS7Uj4cQo7R5i-206">
          <mxGeometry x="471.549295774648" y="34" width="47.1549295774648" height="20" as="geometry" />
        </mxCell>
        <mxCell id="n1H6Ov5bS7Uj4cQo7R5i-213" value="Borrar" style="html=1;shadow=0;dashed=0;shape=mxgraph.bootstrap.rrect;rSize=5;strokeColor=none;strokeWidth=1;fillColor=#DB2843;fontColor=#FFFFFF;whiteSpace=wrap;align=left;verticalAlign=middle;spacingLeft=0;fontStyle=1;fontSize=14;spacing=5;" vertex="1" parent="n1H6Ov5bS7Uj4cQo7R5i-206">
          <mxGeometry x="527.43661971831" y="34" width="48.90140845070423" height="20" as="geometry" />
        </mxCell>
        <mxCell id="n1H6Ov5bS7Uj4cQo7R5i-214" value="+ Agregar" style="html=1;shadow=0;dashed=0;shape=mxgraph.bootstrap.rrect;rSize=5;strokeColor=none;strokeWidth=1;fillColor=#0085FC;fontColor=#FFFFFF;whiteSpace=wrap;align=center;verticalAlign=middle;spacingLeft=0;fontStyle=1;fontSize=14;spacing=5;" vertex="1" parent="n1H6Ov5bS7Uj4cQo7R5i-206">
          <mxGeometry x="471.549295774648" y="5" width="104.7887323943662" height="20" as="geometry" />
        </mxCell>
        <mxCell id="n1H6Ov5bS7Uj4cQo7R5i-215" value="Editar" style="html=1;shadow=0;dashed=0;shape=mxgraph.bootstrap.rrect;rSize=5;strokeColor=none;strokeWidth=1;fillColor=#343A40;fontColor=#FFFFFF;whiteSpace=wrap;align=left;verticalAlign=middle;spacingLeft=0;fontStyle=1;fontSize=14;spacing=5;" vertex="1" parent="n1H6Ov5bS7Uj4cQo7R5i-12">
          <mxGeometry x="497.74464788732405" y="4" width="47.1549295774648" height="20" as="geometry" />
        </mxCell>
        <mxCell id="n1H6Ov5bS7Uj4cQo7R5i-216" value="Borrar" style="html=1;shadow=0;dashed=0;shape=mxgraph.bootstrap.rrect;rSize=5;strokeColor=none;strokeWidth=1;fillColor=#DB2843;fontColor=#FFFFFF;whiteSpace=wrap;align=left;verticalAlign=middle;spacingLeft=0;fontStyle=1;fontSize=14;spacing=5;" vertex="1" parent="n1H6Ov5bS7Uj4cQo7R5i-12">
          <mxGeometry x="553.6319718309861" y="4" width="48.90140845070423" height="20" as="geometry" />
        </mxCell>
        <mxCell id="n1H6Ov5bS7Uj4cQo7R5i-217" value="Editar" style="html=1;shadow=0;dashed=0;shape=mxgraph.bootstrap.rrect;rSize=5;strokeColor=none;strokeWidth=1;fillColor=#343A40;fontColor=#FFFFFF;whiteSpace=wrap;align=left;verticalAlign=middle;spacingLeft=0;fontStyle=1;fontSize=14;spacing=5;" vertex="1" parent="n1H6Ov5bS7Uj4cQo7R5i-12">
          <mxGeometry x="497.74464788732405" y="29" width="47.1549295774648" height="20" as="geometry" />
        </mxCell>
        <mxCell id="n1H6Ov5bS7Uj4cQo7R5i-218" value="Borrar" style="html=1;shadow=0;dashed=0;shape=mxgraph.bootstrap.rrect;rSize=5;strokeColor=none;strokeWidth=1;fillColor=#DB2843;fontColor=#FFFFFF;whiteSpace=wrap;align=left;verticalAlign=middle;spacingLeft=0;fontStyle=1;fontSize=14;spacing=5;" vertex="1" parent="n1H6Ov5bS7Uj4cQo7R5i-12">
          <mxGeometry x="553.6319718309861" y="29" width="48.90140845070423" height="20" as="geometry" />
        </mxCell>
        <mxCell id="n1H6Ov5bS7Uj4cQo7R5i-219" value="Editar" style="html=1;shadow=0;dashed=0;shape=mxgraph.bootstrap.rrect;rSize=5;strokeColor=none;strokeWidth=1;fillColor=#343A40;fontColor=#FFFFFF;whiteSpace=wrap;align=left;verticalAlign=middle;spacingLeft=0;fontStyle=1;fontSize=14;spacing=5;" vertex="1" parent="n1H6Ov5bS7Uj4cQo7R5i-12">
          <mxGeometry x="497.74464788732405" y="55" width="47.1549295774648" height="20" as="geometry" />
        </mxCell>
        <mxCell id="n1H6Ov5bS7Uj4cQo7R5i-220" value="Borrar" style="html=1;shadow=0;dashed=0;shape=mxgraph.bootstrap.rrect;rSize=5;strokeColor=none;strokeWidth=1;fillColor=#DB2843;fontColor=#FFFFFF;whiteSpace=wrap;align=left;verticalAlign=middle;spacingLeft=0;fontStyle=1;fontSize=14;spacing=5;" vertex="1" parent="n1H6Ov5bS7Uj4cQo7R5i-12">
          <mxGeometry x="553.6319718309861" y="55" width="48.90140845070423" height="20" as="geometry" />
        </mxCell>
        <mxCell id="n1H6Ov5bS7Uj4cQo7R5i-221" value="Borrar" style="html=1;shadow=0;dashed=0;shape=mxgraph.bootstrap.rrect;rSize=5;strokeColor=none;strokeWidth=1;fillColor=#DB2843;fontColor=#FFFFFF;whiteSpace=wrap;align=left;verticalAlign=middle;spacingLeft=0;fontStyle=1;fontSize=14;spacing=5;" vertex="1" parent="n1H6Ov5bS7Uj4cQo7R5i-12">
          <mxGeometry x="553.6319718309861" y="412" width="48.90140845070423" height="20" as="geometry" />
        </mxCell>
        <mxCell id="n1H6Ov5bS7Uj4cQo7R5i-222" value="Editar" style="html=1;shadow=0;dashed=0;shape=mxgraph.bootstrap.rrect;rSize=5;strokeColor=none;strokeWidth=1;fillColor=#343A40;fontColor=#FFFFFF;whiteSpace=wrap;align=left;verticalAlign=middle;spacingLeft=0;fontStyle=1;fontSize=14;spacing=5;" vertex="1" parent="n1H6Ov5bS7Uj4cQo7R5i-12">
          <mxGeometry x="497.74464788732405" y="412" width="47.1549295774648" height="20" as="geometry" />
        </mxCell>
        <mxCell id="n1H6Ov5bS7Uj4cQo7R5i-17" value="&lt;b&gt;&lt;font style=&quot;font-size: 18px&quot;&gt;Bloques de CeCos&lt;/font&gt;&lt;/b&gt;" style="text;html=1;strokeColor=none;fillColor=none;align=center;verticalAlign=middle;whiteSpace=wrap;rounded=0;" vertex="1" parent="n1H6Ov5bS7Uj4cQo7R5i-2">
          <mxGeometry x="160" y="120" width="190" height="30" as="geometry" />
        </mxCell>
        <mxCell id="n1H6Ov5bS7Uj4cQo7R5i-34" value="Alta de nuevo bloque" style="html=1;shadow=0;dashed=0;shape=mxgraph.bootstrap.rrect;rSize=5;html=1;strokeColor=#C8C8C8;fillColor=#ffffff;whiteSpace=wrap;verticalAlign=top;align=left;fontSize=18;spacing=15;spacingTop=-5;" vertex="1" parent="n1H6Ov5bS7Uj4cQo7R5i-2">
          <mxGeometry x="793" y="166" width="346" height="415" as="geometry" />
        </mxCell>
        <mxCell id="n1H6Ov5bS7Uj4cQo7R5i-36" value="" style="html=1;shadow=0;dashed=0;shape=mxgraph.bootstrap.x;strokeColor=#868686;strokeWidth=2;fontSize=18;" vertex="1" parent="n1H6Ov5bS7Uj4cQo7R5i-34">
          <mxGeometry x="1" width="8" height="8" relative="1" as="geometry">
            <mxPoint x="-24" y="20" as="offset" />
          </mxGeometry>
        </mxCell>
        <mxCell id="n1H6Ov5bS7Uj4cQo7R5i-37" value="Nombre del bloque" style="strokeColor=none;fillColor=none;resizeWidth=1;align=left;verticalAlign=top;spacing=10;fontSize=14;whiteSpace=wrap;html=1;" vertex="1" parent="n1H6Ov5bS7Uj4cQo7R5i-34">
          <mxGeometry width="346" height="40" relative="1" as="geometry">
            <mxPoint y="60" as="offset" />
          </mxGeometry>
        </mxCell>
        <mxCell id="n1H6Ov5bS7Uj4cQo7R5i-38" value="Bloque de ejemplo 5" style="html=1;shadow=0;dashed=0;shape=mxgraph.bootstrap.rrect;rSize=5;strokeColor=#CED4DA;fillColor=none;align=left;verticalAlign=middle;spacing=10;fontSize=14;whiteSpace=wrap;html=1;" vertex="1" parent="n1H6Ov5bS7Uj4cQo7R5i-34">
          <mxGeometry width="320" height="40" relative="1" as="geometry">
            <mxPoint x="11" y="100" as="offset" />
          </mxGeometry>
        </mxCell>
        <mxCell id="n1H6Ov5bS7Uj4cQo7R5i-42" value="Crear bloque" style="html=1;shadow=0;dashed=0;shape=mxgraph.bootstrap.rrect;rSize=5;fillColor=#0085FC;strokeColor=none;fontColor=#FFFFFF;fontSize=14;" vertex="1" parent="n1H6Ov5bS7Uj4cQo7R5i-34">
          <mxGeometry x="1" y="1" width="110" height="40" relative="1" as="geometry">
            <mxPoint x="-130" y="-60" as="offset" />
          </mxGeometry>
        </mxCell>
        <mxCell id="n1H6Ov5bS7Uj4cQo7R5i-85" value="Clientes" style="strokeColor=none;fillColor=none;resizeWidth=1;align=left;verticalAlign=top;spacing=10;fontSize=14;whiteSpace=wrap;html=1;" vertex="1" parent="n1H6Ov5bS7Uj4cQo7R5i-34">
          <mxGeometry width="346" height="40" relative="1" as="geometry">
            <mxPoint y="141" as="offset" />
          </mxGeometry>
        </mxCell>
        <mxCell id="n1H6Ov5bS7Uj4cQo7R5i-96" value="" style="strokeWidth=1;shadow=0;dashed=0;align=center;html=1;shape=mxgraph.mockup.forms.rrect;rSize=0;strokeColor=#999999;fillColor=#ffffff;recursiveResize=0;fontSize=18;" vertex="1" parent="n1H6Ov5bS7Uj4cQo7R5i-34">
          <mxGeometry x="10" y="181.10752688172042" width="320" height="107.09677419354838" as="geometry" />
        </mxCell>
        <mxCell id="n1H6Ov5bS7Uj4cQo7R5i-97" value="Cliente 1" style="strokeWidth=1;shadow=0;dashed=0;align=center;html=1;shape=mxgraph.mockup.forms.rrect;rSize=0;fillColor=#eeeeee;strokeColor=#999999;gradientColor=#cccccc;align=left;spacingLeft=4;fontSize=17;fontColor=#666666;labelPosition=right;" vertex="1" parent="n1H6Ov5bS7Uj4cQo7R5i-96">
          <mxGeometry x="8" y="6.693548387096774" width="15" height="13.387096774193548" as="geometry" />
        </mxCell>
        <mxCell id="n1H6Ov5bS7Uj4cQo7R5i-98" value="Cliente 2" style="strokeWidth=1;shadow=0;dashed=0;align=center;html=1;shape=mxgraph.mockup.forms.rrect;rSize=0;fillColor=#eeeeee;strokeColor=#999999;gradientColor=#cccccc;align=left;spacingLeft=4;fontSize=17;fontColor=#666666;labelPosition=right;" vertex="1" parent="n1H6Ov5bS7Uj4cQo7R5i-96">
          <mxGeometry x="8" y="33.46774193548387" width="15" height="13.387096774193548" as="geometry" />
        </mxCell>
        <mxCell id="n1H6Ov5bS7Uj4cQo7R5i-99" value="Option 3" style="strokeWidth=1;shadow=0;dashed=0;align=center;html=1;shape=mxgraph.mockup.forms.checkbox;rSize=0;resizable=0;fillColor=#aaaaaa;strokeColor=#444444;gradientColor=#666666;align=left;spacingLeft=4;fontSize=17;fontColor=#008cff;labelPosition=right;" vertex="1" parent="n1H6Ov5bS7Uj4cQo7R5i-96">
          <mxGeometry x="8" y="60.24193548387097" width="15" height="15" as="geometry" />
        </mxCell>
        <mxCell id="n1H6Ov5bS7Uj4cQo7R5i-100" value="Option 4" style="strokeWidth=1;shadow=0;dashed=0;align=center;html=1;shape=mxgraph.mockup.forms.rrect;rSize=0;fillColor=#eeeeee;strokeColor=#999999;gradientColor=#cccccc;align=left;spacingLeft=4;fontSize=17;fontColor=#666666;labelPosition=right;" vertex="1" parent="n1H6Ov5bS7Uj4cQo7R5i-96">
          <mxGeometry x="8" y="87.01612903225806" width="15" height="13.387096774193548" as="geometry" />
        </mxCell>
        <mxCell id="n1H6Ov5bS7Uj4cQo7R5i-92" value="" style="html=1;shadow=0;dashed=0;shape=mxgraph.bootstrap.rrect;rSize=5;strokeColor=#DEE2E6;html=1;whiteSpace=wrap;fillColor=#ffffff;fontColor=#0085FC;fontSize=18;" vertex="1" parent="n1H6Ov5bS7Uj4cQo7R5i-2">
          <mxGeometry x="160" y="616" width="120" height="40" as="geometry" />
        </mxCell>
        <mxCell id="n1H6Ov5bS7Uj4cQo7R5i-93" value="1" style="strokeColor=inherit;fillColor=inherit;gradientColor=inherit;html=1;shadow=0;dashed=0;shape=mxgraph.bootstrap.leftButton;rSize=5;perimeter=none;whiteSpace=wrap;resizeHeight=1;fillColor=#0085FC;strokeColor=none;fontColor=#ffffff;fontSize=16;" vertex="1" parent="n1H6Ov5bS7Uj4cQo7R5i-92">
          <mxGeometry width="40" height="40" relative="1" as="geometry" />
        </mxCell>
        <mxCell id="n1H6Ov5bS7Uj4cQo7R5i-94" value="2" style="strokeColor=inherit;fillColor=inherit;gradientColor=inherit;fontColor=inherit;html=1;shadow=0;dashed=0;perimeter=none;whiteSpace=wrap;resizeHeight=1;fontSize=16;" vertex="1" parent="n1H6Ov5bS7Uj4cQo7R5i-92">
          <mxGeometry width="40" height="40" relative="1" as="geometry">
            <mxPoint x="40" as="offset" />
          </mxGeometry>
        </mxCell>
        <mxCell id="n1H6Ov5bS7Uj4cQo7R5i-95" value="3" style="strokeColor=inherit;fillColor=inherit;gradientColor=inherit;fontColor=inherit;html=1;shadow=0;dashed=0;shape=mxgraph.bootstrap.rightButton;rSize=5;perimeter=none;whiteSpace=wrap;resizeHeight=1;fontSize=16;" vertex="1" parent="n1H6Ov5bS7Uj4cQo7R5i-92">
          <mxGeometry x="1" width="40" height="40" relative="1" as="geometry">
            <mxPoint x="-40" as="offset" />
          </mxGeometry>
        </mxCell>
        <mxCell id="n1H6Ov5bS7Uj4cQo7R5i-135" value="" style="strokeWidth=1;shadow=0;dashed=0;align=center;html=1;shape=mxgraph.mockup.containers.browserWindow;rSize=0;strokeColor=#666666;strokeColor2=#008cff;strokeColor3=#c4c4c4;mainText=,;recursiveResize=0;verticalAlign=bottom;" vertex="1" parent="1">
          <mxGeometry x="10" y="920" width="1140" height="700" as="geometry" />
        </mxCell>
        <mxCell id="n1H6Ov5bS7Uj4cQo7R5i-136" value="Page 1" style="strokeWidth=1;shadow=0;dashed=0;align=center;html=1;shape=mxgraph.mockup.containers.anchor;fontSize=17;fontColor=#666666;align=left;" vertex="1" parent="n1H6Ov5bS7Uj4cQo7R5i-135">
          <mxGeometry x="60" y="12" width="110" height="26" as="geometry" />
        </mxCell>
        <mxCell id="n1H6Ov5bS7Uj4cQo7R5i-137" value="https://www.draw.io" style="strokeWidth=1;shadow=0;dashed=0;align=center;html=1;shape=mxgraph.mockup.containers.anchor;rSize=0;fontSize=17;fontColor=#666666;align=left;" vertex="1" parent="n1H6Ov5bS7Uj4cQo7R5i-135">
          <mxGeometry x="130" y="60" width="250" height="26" as="geometry" />
        </mxCell>
        <mxCell id="n1H6Ov5bS7Uj4cQo7R5i-183" value="" style="rounded=0;whiteSpace=wrap;html=1;fontSize=18;fontColor=#000000;labelBackgroundColor=#383838;fillColor=#8A8A8A;verticalAlign=top;" vertex="1" parent="n1H6Ov5bS7Uj4cQo7R5i-135">
          <mxGeometry y="110" width="1140" height="590" as="geometry" />
        </mxCell>
        <mxCell id="n1H6Ov5bS7Uj4cQo7R5i-117" value="Agregar Clientes" style="html=1;shadow=0;dashed=0;shape=mxgraph.bootstrap.rrect;rSize=5;html=1;strokeColor=#C8C8C8;fillColor=#ffffff;whiteSpace=wrap;verticalAlign=top;align=left;fontSize=18;spacing=15;spacingTop=-5;fontColor=#000000;" vertex="1" parent="n1H6Ov5bS7Uj4cQo7R5i-135">
          <mxGeometry x="370" y="250.23" width="400" height="219.77" as="geometry" />
        </mxCell>
        <mxCell id="n1H6Ov5bS7Uj4cQo7R5i-119" value="" style="html=1;shadow=0;dashed=0;shape=mxgraph.bootstrap.x;strokeColor=#868686;strokeWidth=2;fontSize=18;fontColor=#000000;" vertex="1" parent="n1H6Ov5bS7Uj4cQo7R5i-117">
          <mxGeometry x="1" width="8" height="8" relative="1" as="geometry">
            <mxPoint x="-24" y="20" as="offset" />
          </mxGeometry>
        </mxCell>
        <mxCell id="n1H6Ov5bS7Uj4cQo7R5i-122" value="Agregar" style="html=1;shadow=0;dashed=0;shape=mxgraph.bootstrap.rrect;rSize=5;fillColor=#0085FC;strokeColor=none;fontColor=#FFFFFF;fontSize=14;" vertex="1" parent="n1H6Ov5bS7Uj4cQo7R5i-117">
          <mxGeometry x="1" y="1" width="110" height="40" relative="1" as="geometry">
            <mxPoint x="-130" y="-60" as="offset" />
          </mxGeometry>
        </mxCell>
        <mxCell id="n1H6Ov5bS7Uj4cQo7R5i-123" value="Cancelar" style="html=1;shadow=0;dashed=0;shape=mxgraph.bootstrap.rrect;rSize=5;fillColor=#6C757D;strokeColor=none;fontColor=#FFFFFF;fontSize=14;" vertex="1" parent="n1H6Ov5bS7Uj4cQo7R5i-117">
          <mxGeometry x="1" y="1" width="91" height="40" relative="1" as="geometry">
            <mxPoint x="-241" y="-60" as="offset" />
          </mxGeometry>
        </mxCell>
        <mxCell id="n1H6Ov5bS7Uj4cQo7R5i-130" value="" style="strokeWidth=1;shadow=0;dashed=0;align=center;html=1;shape=mxgraph.mockup.forms.rrect;rSize=0;strokeColor=#999999;fillColor=#ffffff;recursiveResize=0;fontSize=18;" vertex="1" parent="n1H6Ov5bS7Uj4cQo7R5i-117">
          <mxGeometry x="40" y="59.64991600998469" width="320" height="84.05949308755761" as="geometry" />
        </mxCell>
        <mxCell id="n1H6Ov5bS7Uj4cQo7R5i-131" value="Cliente 1" style="strokeWidth=1;shadow=0;dashed=0;align=center;html=1;shape=mxgraph.mockup.forms.rrect;rSize=0;fillColor=#eeeeee;strokeColor=#999999;gradientColor=#cccccc;align=left;spacingLeft=4;fontSize=17;fontColor=#666666;labelPosition=right;" vertex="1" parent="n1H6Ov5bS7Uj4cQo7R5i-130">
          <mxGeometry x="8" y="5.253718317972351" width="15" height="10.507436635944702" as="geometry" />
        </mxCell>
        <mxCell id="n1H6Ov5bS7Uj4cQo7R5i-132" value="Cliente 2" style="strokeWidth=1;shadow=0;dashed=0;align=center;html=1;shape=mxgraph.mockup.forms.rrect;rSize=0;fillColor=#eeeeee;strokeColor=#999999;gradientColor=#cccccc;align=left;spacingLeft=4;fontSize=17;fontColor=#666666;labelPosition=right;" vertex="1" parent="n1H6Ov5bS7Uj4cQo7R5i-130">
          <mxGeometry x="8" y="26.268591589861757" width="15" height="10.507436635944702" as="geometry" />
        </mxCell>
        <mxCell id="n1H6Ov5bS7Uj4cQo7R5i-133" value="Option 3" style="strokeWidth=1;shadow=0;dashed=0;align=center;html=1;shape=mxgraph.mockup.forms.checkbox;rSize=0;resizable=0;fillColor=#aaaaaa;strokeColor=#444444;gradientColor=#666666;align=left;spacingLeft=4;fontSize=17;fontColor=#008cff;labelPosition=right;" vertex="1" parent="n1H6Ov5bS7Uj4cQo7R5i-130">
          <mxGeometry x="8" y="47.283464861751156" width="15" height="15" as="geometry" />
        </mxCell>
        <mxCell id="n1H6Ov5bS7Uj4cQo7R5i-134" value="Option 4" style="strokeWidth=1;shadow=0;dashed=0;align=center;html=1;shape=mxgraph.mockup.forms.rrect;rSize=0;fillColor=#eeeeee;strokeColor=#999999;gradientColor=#cccccc;align=left;spacingLeft=4;fontSize=17;fontColor=#666666;labelPosition=right;" vertex="1" parent="n1H6Ov5bS7Uj4cQo7R5i-130">
          <mxGeometry x="8" y="68.29833813364056" width="15" height="10.507436635944702" as="geometry" />
        </mxCell>
        <mxCell id="n1H6Ov5bS7Uj4cQo7R5i-225" value="" style="strokeWidth=1;shadow=0;dashed=0;align=center;html=1;shape=mxgraph.mockup.containers.browserWindow;rSize=0;strokeColor=#666666;strokeColor2=#008cff;strokeColor3=#c4c4c4;mainText=,;recursiveResize=0;verticalAlign=bottom;" vertex="1" parent="1">
          <mxGeometry x="11" y="1640" width="1140" height="700" as="geometry" />
        </mxCell>
        <mxCell id="n1H6Ov5bS7Uj4cQo7R5i-226" value="Page 1" style="strokeWidth=1;shadow=0;dashed=0;align=center;html=1;shape=mxgraph.mockup.containers.anchor;fontSize=17;fontColor=#666666;align=left;" vertex="1" parent="n1H6Ov5bS7Uj4cQo7R5i-225">
          <mxGeometry x="60" y="12" width="110" height="26" as="geometry" />
        </mxCell>
        <mxCell id="n1H6Ov5bS7Uj4cQo7R5i-227" value="https://www.draw.io" style="strokeWidth=1;shadow=0;dashed=0;align=center;html=1;shape=mxgraph.mockup.containers.anchor;rSize=0;fontSize=17;fontColor=#666666;align=left;" vertex="1" parent="n1H6Ov5bS7Uj4cQo7R5i-225">
          <mxGeometry x="130" y="60" width="250" height="26" as="geometry" />
        </mxCell>
        <mxCell id="n1H6Ov5bS7Uj4cQo7R5i-228" value="" style="rounded=0;whiteSpace=wrap;html=1;fontSize=18;fontColor=#000000;labelBackgroundColor=#383838;fillColor=#8A8A8A;verticalAlign=top;" vertex="1" parent="n1H6Ov5bS7Uj4cQo7R5i-225">
          <mxGeometry y="110" width="1140" height="590" as="geometry" />
        </mxCell>
        <mxCell id="n1H6Ov5bS7Uj4cQo7R5i-229" value="Agregar usuarios de carga" style="html=1;shadow=0;dashed=0;shape=mxgraph.bootstrap.rrect;rSize=5;html=1;strokeColor=#C8C8C8;fillColor=#ffffff;whiteSpace=wrap;verticalAlign=top;align=left;fontSize=18;spacing=15;spacingTop=-5;fontColor=#000000;" vertex="1" parent="n1H6Ov5bS7Uj4cQo7R5i-225">
          <mxGeometry x="370" y="250.23" width="400" height="219.77" as="geometry" />
        </mxCell>
        <mxCell id="n1H6Ov5bS7Uj4cQo7R5i-230" value="" style="html=1;shadow=0;dashed=0;shape=mxgraph.bootstrap.x;strokeColor=#868686;strokeWidth=2;fontSize=18;fontColor=#000000;" vertex="1" parent="n1H6Ov5bS7Uj4cQo7R5i-229">
          <mxGeometry x="1" width="8" height="8" relative="1" as="geometry">
            <mxPoint x="-24" y="20" as="offset" />
          </mxGeometry>
        </mxCell>
        <mxCell id="n1H6Ov5bS7Uj4cQo7R5i-231" value="Agregar" style="html=1;shadow=0;dashed=0;shape=mxgraph.bootstrap.rrect;rSize=5;fillColor=#0085FC;strokeColor=none;fontColor=#FFFFFF;fontSize=14;" vertex="1" parent="n1H6Ov5bS7Uj4cQo7R5i-229">
          <mxGeometry x="1" y="1" width="110" height="40" relative="1" as="geometry">
            <mxPoint x="-130" y="-60" as="offset" />
          </mxGeometry>
        </mxCell>
        <mxCell id="n1H6Ov5bS7Uj4cQo7R5i-232" value="Cancelar" style="html=1;shadow=0;dashed=0;shape=mxgraph.bootstrap.rrect;rSize=5;fillColor=#6C757D;strokeColor=none;fontColor=#FFFFFF;fontSize=14;" vertex="1" parent="n1H6Ov5bS7Uj4cQo7R5i-229">
          <mxGeometry x="1" y="1" width="91" height="40" relative="1" as="geometry">
            <mxPoint x="-241" y="-60" as="offset" />
          </mxGeometry>
        </mxCell>
        <mxCell id="n1H6Ov5bS7Uj4cQo7R5i-233" value="" style="strokeWidth=1;shadow=0;dashed=0;align=center;html=1;shape=mxgraph.mockup.forms.rrect;rSize=0;strokeColor=#999999;fillColor=#ffffff;recursiveResize=0;fontSize=18;" vertex="1" parent="n1H6Ov5bS7Uj4cQo7R5i-229">
          <mxGeometry x="40" y="59.64991600998469" width="320" height="84.05949308755761" as="geometry" />
        </mxCell>
        <mxCell id="n1H6Ov5bS7Uj4cQo7R5i-234" value="Usuario de carga 1" style="strokeWidth=1;shadow=0;dashed=0;align=center;html=1;shape=mxgraph.mockup.forms.rrect;rSize=0;fillColor=#eeeeee;strokeColor=#999999;gradientColor=#cccccc;align=left;spacingLeft=4;fontSize=17;fontColor=#666666;labelPosition=right;" vertex="1" parent="n1H6Ov5bS7Uj4cQo7R5i-233">
          <mxGeometry x="8" y="5.253718317972351" width="15" height="10.507436635944702" as="geometry" />
        </mxCell>
        <mxCell id="n1H6Ov5bS7Uj4cQo7R5i-235" value="Usuario de carga 2" style="strokeWidth=1;shadow=0;dashed=0;align=center;html=1;shape=mxgraph.mockup.forms.rrect;rSize=0;fillColor=#eeeeee;strokeColor=#999999;gradientColor=#cccccc;align=left;spacingLeft=4;fontSize=17;fontColor=#666666;labelPosition=right;" vertex="1" parent="n1H6Ov5bS7Uj4cQo7R5i-233">
          <mxGeometry x="8" y="26.268591589861757" width="15" height="10.507436635944702" as="geometry" />
        </mxCell>
        <mxCell id="n1H6Ov5bS7Uj4cQo7R5i-236" value="&lt;span style=&quot;color: rgb(102 , 102 , 102)&quot;&gt;Usuario de carga 3&lt;/span&gt;" style="strokeWidth=1;shadow=0;dashed=0;align=center;html=1;shape=mxgraph.mockup.forms.checkbox;rSize=0;resizable=0;fillColor=#aaaaaa;strokeColor=#444444;gradientColor=#666666;align=left;spacingLeft=4;fontSize=17;fontColor=#008cff;labelPosition=right;" vertex="1" parent="n1H6Ov5bS7Uj4cQo7R5i-233">
          <mxGeometry x="8" y="47.283464861751156" width="15" height="15" as="geometry" />
        </mxCell>
        <mxCell id="n1H6Ov5bS7Uj4cQo7R5i-237" value="Usuario de carga 4" style="strokeWidth=1;shadow=0;dashed=0;align=center;html=1;shape=mxgraph.mockup.forms.rrect;rSize=0;fillColor=#eeeeee;strokeColor=#999999;gradientColor=#cccccc;align=left;spacingLeft=4;fontSize=17;fontColor=#666666;labelPosition=right;" vertex="1" parent="n1H6Ov5bS7Uj4cQo7R5i-233">
          <mxGeometry x="8" y="68.29833813364056" width="15" height="10.507436635944702" as="geometry" />
        </mxCell>
      </root>
    </mxGraphModel>
  </diagram>
</mxfile>
